<svg width="101" height="23" viewBox="0 0 101 23" fill="none" xmlns="http://www.w3.org/2000/svg">
<g clip-path="url(#clip0_349_631)">
<path d="M28.3867 15.1262V7.14167H30.5035V10.1147H32.891V7.14167H35.0078V15.1262H32.891V11.9572H30.5035V15.1262H28.3867ZM38.4735 15.2736C37.8007 15.2736 37.3125 15.0484 37.0084 14.5981C36.7049 14.1395 36.5531 13.5294 36.5531 12.7683V8.98476H38.6699V12.4982C38.6699 12.8912 38.7192 13.1532 38.8176 13.2842C38.9243 13.4152 39.0802 13.4807 39.2853 13.4807C39.4822 13.4807 39.6463 13.4398 39.7776 13.358C39.9089 13.2761 40.0402 13.1368 40.1714 12.9403V8.98511H42.2882V15.126H40.5653L40.4176 14.3154H40.3684C40.1223 14.6101 39.8474 14.8435 39.5438 15.0155C39.2485 15.1875 38.8916 15.2734 38.4731 15.2734L38.4735 15.2736ZM45.9578 17.6565C45.4902 17.6565 45.0594 17.6032 44.6659 17.4968C44.2721 17.3985 43.9562 17.2388 43.7183 17.0177C43.4885 16.7967 43.3737 16.5018 43.3737 16.1333C43.3737 15.6502 43.6608 15.2572 44.2352 14.9541V14.9049C44.0779 14.7888 43.9407 14.6477 43.829 14.4873C43.7224 14.3154 43.6691 14.1024 43.6691 13.8486C43.6691 13.6357 43.7306 13.4268 43.8537 13.2222C43.9849 13.0174 44.1532 12.8414 44.3582 12.694V12.6448C44.1367 12.4975 43.9399 12.2886 43.7676 12.0183C43.6034 11.7399 43.5214 11.4247 43.5214 11.0726C43.5214 10.5649 43.6444 10.1473 43.8906 9.82032C44.1449 9.48452 44.4731 9.23893 44.8751 9.08332C45.2772 8.91959 45.7038 8.83761 46.1554 8.83761C46.5164 8.83761 46.8446 8.88678 47.1399 8.98511H49.4287V10.5087H48.5426C48.5671 10.5825 48.5877 10.6766 48.604 10.7912C48.6287 10.9059 48.641 11.0246 48.641 11.1474C48.641 11.6306 48.5303 12.0237 48.3087 12.3267C48.0871 12.6214 47.7878 12.8385 47.4103 12.9776C47.0328 13.1169 46.6144 13.1865 46.1555 13.1865C45.9505 13.1865 45.7207 13.1578 45.4664 13.1004C45.3678 13.1905 45.3187 13.3092 45.3187 13.4566C45.3187 13.5877 45.3843 13.6818 45.5156 13.7392C45.655 13.7965 45.8766 13.8251 46.1802 13.8251H47.1032C47.8744 13.8251 48.4695 13.9521 48.8877 14.2059C49.3144 14.4516 49.5277 14.8569 49.5277 15.4223C49.5277 15.8645 49.38 16.2534 49.0847 16.5888C48.7975 16.9245 48.3872 17.1865 47.8543 17.3748C47.3211 17.5632 46.689 17.6574 45.9594 17.6574L45.9578 17.6565ZM46.1547 11.933C46.3516 11.933 46.5116 11.8634 46.6347 11.7242C46.7578 11.585 46.8193 11.368 46.8193 11.0732C46.8193 10.7866 46.7578 10.5777 46.6347 10.4467C46.5116 10.3076 46.3516 10.238 46.1547 10.238C45.9578 10.238 45.7978 10.3076 45.6748 10.4467C45.5516 10.5777 45.4902 10.7866 45.4902 11.0732C45.4902 11.368 45.5516 11.585 45.6748 11.7242C45.7978 11.8634 45.9578 11.933 46.1547 11.933ZM46.3024 16.3555C46.647 16.3555 46.9342 16.3022 47.1639 16.1958C47.3937 16.0975 47.5085 15.9624 47.5085 15.7904C47.5085 15.6267 47.4347 15.5243 47.287 15.4834C47.1475 15.4424 46.9465 15.4219 46.6839 15.4219H46.204C45.9578 15.4219 45.7691 15.4138 45.6378 15.3973C45.5148 15.3892 45.4082 15.3729 45.3179 15.3483C45.1702 15.4957 45.0963 15.643 45.0963 15.7904C45.0963 15.987 45.207 16.1303 45.4286 16.2204C45.6584 16.3105 45.9497 16.3555 46.3024 16.3555ZM52.676 17.6576C52.2083 17.6576 51.7776 17.6044 51.3841 17.498C50.9903 17.3996 50.6744 17.24 50.4364 17.0188C50.2067 16.7978 50.0918 16.503 50.0918 16.1345C50.0918 15.6514 50.379 15.2583 50.9533 14.9552V14.906C50.796 14.79 50.6588 14.6489 50.5473 14.4885C50.4405 14.3165 50.3872 14.1035 50.3872 13.8497C50.3872 13.6368 50.4487 13.428 50.5718 13.2233C50.7031 13.0186 50.8713 12.8425 51.0765 12.6952V12.646C50.8549 12.4986 50.658 12.2898 50.4857 12.0195C50.3215 11.7411 50.2395 11.4258 50.2395 11.0738C50.2395 10.566 50.3627 10.1485 50.6087 9.82148C50.863 9.48568 51.1912 9.24009 51.5933 9.08448C51.9953 8.92075 52.4219 8.83877 52.8737 8.83877C53.2347 8.83877 53.563 8.88794 53.8583 8.98626H56.147V10.5099H55.2609C55.2855 10.5836 55.306 10.6778 55.3225 10.7924C55.347 10.907 55.3593 11.0258 55.3593 11.1486C55.3593 11.6317 55.2486 12.0248 55.027 12.3278C54.8056 12.6226 54.5061 12.8396 54.1286 12.9788C53.7513 13.118 53.3328 13.1876 52.8739 13.1876C52.6688 13.1876 52.4391 13.159 52.1847 13.1016C52.0863 13.1917 52.037 13.3104 52.037 13.4578C52.037 13.5888 52.1027 13.683 52.234 13.7404C52.3735 13.7976 52.5949 13.8263 52.8985 13.8263H53.8216C54.5928 13.8263 55.1878 13.9533 55.6061 14.2071C56.0327 14.4528 56.246 14.858 56.246 15.4234C56.246 15.8657 56.0983 16.2546 55.803 16.5899C55.5158 16.9256 55.1056 17.1877 54.5727 17.376C54.0394 17.5644 53.4074 17.6586 52.6778 17.6586L52.676 17.6576ZM52.8728 11.9342C53.0698 11.9342 53.2297 11.8646 53.3529 11.7253C53.4759 11.5862 53.5375 11.3691 53.5375 11.0744C53.5375 10.7877 53.4759 10.5789 53.3529 10.4479C53.2297 10.3087 53.0698 10.2391 52.8728 10.2391C52.676 10.2391 52.5159 10.3087 52.3929 10.4479C52.2699 10.5789 52.2083 10.7877 52.2083 11.0744C52.2083 11.3691 52.2699 11.5862 52.3929 11.7253C52.5159 11.8646 52.676 11.9342 52.8728 11.9342ZM53.0206 16.3566C53.3652 16.3566 53.6523 16.3034 53.8821 16.197C54.1118 16.0986 54.2267 15.9635 54.2267 15.7916C54.2267 15.6279 54.1528 15.5255 54.0051 15.4845C53.8657 15.4436 53.6646 15.4231 53.402 15.4231H52.9221C52.676 15.4231 52.4872 15.415 52.356 15.3985C52.2329 15.3904 52.1263 15.374 52.036 15.3495C51.8883 15.4968 51.8144 15.6442 51.8144 15.7916C51.8144 15.9881 51.9253 16.1314 52.1468 16.2215C52.3765 16.3116 52.6678 16.3566 53.0206 16.3566ZM57.1543 15.1287V8.98777H59.2711V15.1287H57.1543ZM58.2127 8.22596C57.8681 8.22596 57.5891 8.1318 57.3757 7.94349C57.1624 7.74695 57.0558 7.48896 57.0558 7.16962C57.0558 6.85028 57.1624 6.59634 57.3757 6.40804C57.5891 6.21149 57.8681 6.11328 58.2127 6.11328C58.5573 6.11328 58.8362 6.21149 59.0496 6.40804C59.2629 6.59634 59.3695 6.85028 59.3695 7.16962C59.3695 7.48896 59.2629 7.74695 59.0496 7.94349C58.8362 8.1318 58.5573 8.22596 58.2127 8.22596ZM60.7001 15.1287V8.98777H62.4231L62.5707 9.72466H62.62C62.8661 9.48719 63.1451 9.28253 63.4568 9.11057C63.7768 8.93038 64.146 8.84028 64.5645 8.84028C65.2454 8.84028 65.7333 9.06964 66.0295 9.52823C66.3331 9.9786 66.4848 10.5846 66.4848 11.3464V15.13H64.368V11.6166C64.368 11.2235 64.3188 10.9614 64.2204 10.8304C64.1219 10.6994 63.9661 10.6339 63.7526 10.6339C63.5558 10.6339 63.3917 10.6748 63.2604 10.7568C63.1291 10.8386 62.9814 10.9533 62.8174 11.1007V15.1289L60.7001 15.1287ZM70.1026 17.6588C69.635 17.6588 69.2042 17.6056 68.8107 17.4991C68.4169 17.4008 68.101 17.2411 67.8631 17.02C67.6333 16.799 67.5185 16.5041 67.5185 16.1356C67.5185 15.6526 67.8056 15.2595 68.38 14.9564V14.9072C68.2227 14.7911 68.0855 14.65 67.9738 14.4897C67.8672 14.3177 67.8138 14.1047 67.8138 13.8509C67.8138 13.638 67.8754 13.4291 67.9984 13.2245C68.1297 13.0197 68.298 12.8437 68.503 12.6963V12.6472C68.2815 12.4998 68.0845 12.2909 67.9122 12.0207C67.7482 11.7423 67.6662 11.427 67.6662 11.0749C67.6662 10.5672 67.7892 10.1496 68.0354 9.82264C68.2897 9.48684 68.6179 9.24125 69.0199 9.08564C69.422 8.92191 69.8486 8.83993 70.3002 8.83993C70.6612 8.83993 70.9894 8.8891 71.2847 8.98742H73.5735V10.5111H72.6874C72.712 10.5848 72.7326 10.679 72.7489 10.7935C72.7736 10.9082 72.7859 11.0269 72.7859 11.1497C72.7859 11.6329 72.6752 12.026 72.4536 12.329C72.232 12.6237 71.9325 12.8408 71.5552 12.9799C71.1777 13.1192 70.7593 13.1888 70.3004 13.1888C70.0953 13.1888 69.8656 13.1601 69.6113 13.1027C69.5127 13.1928 69.4636 13.3116 69.4636 13.4589C69.4636 13.59 69.5292 13.6841 69.6605 13.7415C69.7999 13.7988 70.0215 13.8274 70.3251 13.8274H71.2481C72.0193 13.8274 72.6144 13.9544 73.0326 14.2082C73.4593 14.4539 73.6726 14.8592 73.6726 15.4246C73.6726 15.8668 73.5249 16.2557 73.2295 16.5911C72.9424 16.9268 72.5321 17.1888 71.9991 17.3771C71.4658 17.5656 70.8338 17.6597 70.1042 17.6597L70.1026 17.6588ZM70.2995 11.9353C70.4964 11.9353 70.6564 11.8657 70.7794 11.7265C70.9026 11.5873 70.9641 11.3703 70.9641 11.0755C70.9641 10.7889 70.9026 10.58 70.7794 10.449C70.6564 10.3099 70.4964 10.2403 70.2995 10.2403C70.1026 10.2403 69.9426 10.3099 69.8196 10.449C69.6964 10.58 69.635 10.7889 69.635 11.0755C69.635 11.3703 69.6964 11.5873 69.8196 11.7265C69.9426 11.8657 70.1026 11.9353 70.2995 11.9353ZM70.4472 16.3578C70.7918 16.3578 71.079 16.3046 71.3086 16.1981C71.5384 16.0998 71.6532 15.9647 71.6532 15.7927C71.6532 15.629 71.5795 15.5266 71.4318 15.4857C71.2923 15.4448 71.0913 15.4242 70.8287 15.4242H70.3488C70.1026 15.4242 69.9139 15.4161 69.7826 15.3997C69.6596 15.3915 69.5528 15.3752 69.4627 15.3506C69.3149 15.498 69.2411 15.6454 69.2411 15.7927C69.2411 15.9893 69.3518 16.1326 69.5734 16.2227C69.8031 16.3128 70.0943 16.3578 70.4472 16.3578ZM77.217 15.1298V7.14527H82.4346V8.91356H79.3338V10.4372H81.992V12.2055H79.3338V15.1287L77.217 15.1298ZM84.7501 15.2772C84.3645 15.2772 84.0322 15.1913 83.7533 15.0193C83.487 14.844 83.2707 14.6028 83.1257 14.3192C82.9779 14.0326 82.9041 13.7213 82.9041 13.3857C82.9041 12.7469 83.1667 12.2475 83.6917 11.8875C84.2168 11.519 85.0696 11.2735 86.2511 11.1505C86.2019 10.7248 85.9147 10.5119 85.3897 10.5119C85.1681 10.5119 84.9342 10.5569 84.6882 10.647C84.442 10.7288 84.159 10.8558 83.8389 11.0277L83.1006 9.65253C83.5354 9.39048 83.9744 9.18988 84.4169 9.05062C84.8673 8.91159 85.3361 8.84121 85.8076 8.84178C86.6117 8.84178 87.2389 9.07114 87.6909 9.52974C88.1421 9.9801 88.3677 10.709 88.3677 11.7166V15.1315H86.6448L86.4971 14.5418H86.4478C86.2017 14.763 85.9391 14.9432 85.6601 15.0823C85.3894 15.2133 85.0859 15.2788 84.7494 15.2788L84.7501 15.2772ZM85.4885 13.6562C85.6608 13.6562 85.8044 13.6193 85.9193 13.5457C86.0341 13.4638 86.145 13.3614 86.2516 13.2386V12.4033C85.7511 12.477 85.4025 12.5876 85.2055 12.7349C85.0169 12.8824 84.9224 13.0421 84.9224 13.2141C84.9224 13.5088 85.1112 13.6562 85.4885 13.6562ZM92.5302 15.2772C91.9477 15.2772 91.4226 15.1502 90.9548 14.8964C90.4871 14.6426 90.1138 14.2782 89.8348 13.8032C89.564 13.3201 89.4287 12.7388 89.4287 12.0593C89.4287 11.3797 89.5805 10.8023 89.8841 10.3269C90.1958 9.84374 90.602 9.47536 91.1028 9.22142C91.6032 8.9676 92.1447 8.84063 92.727 8.84063C93.0963 8.84063 93.4286 8.89802 93.724 9.01259C94.0275 9.12726 94.2942 9.28287 94.5239 9.47942L93.5394 10.8303C93.4081 10.7157 93.2891 10.6379 93.1825 10.597C93.0765 10.556 92.9638 10.5353 92.8502 10.5355C92.4563 10.5355 92.1487 10.6747 91.9271 10.9532C91.7056 11.2234 91.5949 11.5919 91.5949 12.0586C91.5949 12.5254 91.7098 12.898 91.9394 13.1764C92.1691 13.4465 92.4481 13.5817 92.7763 13.5817C92.9486 13.5817 93.1168 13.5449 93.2809 13.4711C93.4491 13.3917 93.6098 13.2971 93.7609 13.1887L94.5731 14.5639C94.2696 14.8342 93.9332 15.0225 93.564 15.1289C93.1948 15.2271 92.8502 15.2763 92.5302 15.2763V15.2772ZM98.036 15.2772C97.437 15.2772 96.8955 15.1502 96.4118 14.8964C95.9359 14.6426 95.5585 14.2782 95.2795 13.8032C95.0006 13.3201 94.8611 12.7388 94.8611 12.0593C94.8611 11.396 95.0006 10.8267 95.2795 10.3524C95.5667 9.86925 95.9359 9.49669 96.3872 9.23464C96.8384 8.97258 97.3143 8.84155 97.815 8.84155C98.4222 8.84155 98.9227 8.97676 99.3161 9.24693C99.7182 9.50898 100.014 9.86519 100.202 10.3156C100.399 10.7659 100.498 11.2654 100.498 11.8137C100.498 11.9938 100.485 12.1699 100.461 12.3418C100.444 12.5056 100.428 12.6243 100.411 12.6981H96.9039C97.0023 13.0666 97.1788 13.3244 97.4331 13.4718C97.6875 13.6111 97.987 13.6806 98.3316 13.6806C98.7254 13.6806 99.1438 13.5579 99.5863 13.3121L100.275 14.5644C99.9473 14.7937 99.5781 14.9698 99.1678 15.0926C98.7576 15.2154 98.3802 15.2769 98.0356 15.2769L98.036 15.2772ZM96.8791 11.322H98.7008C98.7008 11.0846 98.6392 10.8799 98.5162 10.7079C98.4013 10.5278 98.1839 10.4377 97.8639 10.4377C97.6341 10.4377 97.4291 10.5073 97.2485 10.6465C97.068 10.7857 96.9449 11.0109 96.8793 11.322H96.8791Z" fill="white"/>
<path d="M23.8465 16.2975C23.7841 16.0625 23.683 15.8395 23.5474 15.6375C23.5765 15.5311 23.5985 15.423 23.6134 15.3139C23.7096 14.6209 23.469 13.9862 23.0153 13.4957C22.7696 13.2276 22.5062 13.0507 22.2273 12.942C22.4104 12.1602 22.5031 11.3604 22.5035 10.5569C22.5035 10.1902 22.4827 9.83101 22.4479 9.47712C22.4296 9.30041 22.4077 9.12404 22.382 8.94826C22.3021 8.4296 22.1836 7.91755 22.0274 7.41651C21.9251 7.08732 21.8067 6.76323 21.6727 6.44551C21.4718 5.97497 21.2373 5.51951 20.9709 5.08306C20.796 4.79248 20.6057 4.51141 20.4007 4.24112C20.3002 4.10464 20.1955 3.97141 20.0865 3.84154C19.7638 3.44997 19.4131 3.0824 19.0371 2.74149C18.9123 2.62691 18.7839 2.51631 18.652 2.40975C18.5223 2.3017 18.3896 2.19709 18.2542 2.09609C17.9818 1.89375 17.7002 1.70382 17.4104 1.52711C15.8095 0.556577 13.932 0 11.9244 0C6.0817 0 1.3462 4.72627 1.3462 10.5576C1.34605 11.3706 1.44043 12.1809 1.62747 12.9717C1.37652 13.0805 1.13591 13.2499 0.912962 13.4951C0.459395 13.9857 0.21867 14.6179 0.314983 15.311C0.329506 15.4211 0.35158 15.5301 0.380857 15.6373C0.245391 15.8394 0.144314 16.0625 0.0818096 16.2975C-0.0576066 16.8264 -0.0117154 17.3033 0.165459 17.7214C-0.0270512 18.2677 0.0210473 18.8493 0.27188 19.3552C0.454283 19.7245 0.71534 20.0101 1.03704 20.2656C1.41962 20.569 1.89852 20.827 2.47651 21.0743C3.16569 21.3677 4.00661 21.6433 4.38884 21.7444C5.37707 21.9999 6.3244 22.1618 7.28521 22.1695C8.65381 22.1823 9.83188 21.8611 10.6753 21.0393C11.0898 21.09 11.5068 21.1154 11.9243 21.1153C12.3654 21.1143 12.8061 21.0865 13.2441 21.0322C14.0857 21.8592 15.2679 22.1833 16.6412 22.1702C17.6014 22.1627 18.5489 22.0008 19.5341 21.745C19.9192 21.6439 20.7598 21.3683 21.4499 21.075C22.0277 20.8271 22.5064 20.5692 22.8917 20.2661C23.2109 20.0108 23.4718 19.7251 23.6543 19.3558C23.9077 18.8501 23.9533 18.2685 23.7633 17.722C23.9388 17.3042 23.9844 16.8263 23.8451 16.2981L23.8465 16.2975ZM22.866 17.6855C23.0601 18.0532 23.0726 18.4686 22.9012 18.8555C22.6414 19.4419 21.9962 19.9038 20.7426 20.4C19.9634 20.7085 19.2497 20.9056 19.2439 20.9075C18.2131 21.1743 17.2804 21.3097 16.4741 21.3097C15.1381 21.3097 14.1436 20.9418 13.5127 20.215C12.4463 20.3962 11.3576 20.4024 10.2887 20.2332C9.65737 20.948 8.66915 21.3097 7.34353 21.3097C6.53643 21.3097 5.60431 21.1743 4.5738 20.9075C4.56741 20.9056 3.85418 20.7085 3.07507 20.4C1.82149 19.904 1.17669 19.4424 0.916447 18.8555C0.745082 18.4685 0.757513 18.0531 0.95165 17.6855C0.969658 17.6514 0.988828 17.618 1.00939 17.5859C0.892979 17.4115 0.815022 17.2144 0.780401 17.0077C0.745802 16.8011 0.755433 16.5894 0.808656 16.3867C0.885799 16.0942 1.0452 15.851 1.26153 15.6762C1.15736 15.5053 1.089 15.3152 1.06053 15.1171C0.998262 14.6865 1.1414 14.2564 1.46368 13.9054C1.71451 13.6326 2.06921 13.4824 2.46201 13.4824H2.47247C2.17633 12.5352 2.02622 11.5483 2.02715 10.5557C2.02715 5.14417 6.42341 0.756482 11.8455 0.756482C17.2688 0.756482 21.6639 5.14417 21.6639 10.5557C21.6646 11.5506 21.5135 12.5397 21.2156 13.4893C21.263 13.4847 21.3095 13.4823 21.355 13.4823C21.7477 13.4823 22.1025 13.6323 22.3533 13.9052C22.6754 14.2555 22.8189 14.6859 22.7565 15.1169C22.728 15.3149 22.6597 15.5052 22.5555 15.6761C22.7718 15.8507 22.9312 16.094 23.0084 16.3866C23.0614 16.5893 23.0711 16.8009 23.0365 17.0076C23.0018 17.2142 22.9239 17.4113 22.8076 17.5858C22.8282 17.6175 22.8476 17.6509 22.8653 17.685L22.866 17.6855Z" fill="white"/>
<path d="M22.8 17.5847C22.9163 17.4101 22.9942 17.2131 23.0289 17.0065C23.0635 16.7998 23.0538 16.5881 23.0008 16.3855C22.9236 16.093 22.7642 15.8498 22.5479 15.675C22.652 15.5041 22.7204 15.3139 22.7489 15.1159C22.8111 14.6852 22.668 14.2552 22.3457 13.9042C22.0949 13.6313 21.7401 13.4812 21.3474 13.4812C21.3017 13.4812 21.2554 13.4835 21.208 13.4882C21.5055 12.5388 21.6564 11.5495 21.6555 10.5546C21.6555 5.14306 17.2593 0.755371 11.8371 0.755371C6.415 0.755371 2.01874 5.1419 2.01874 10.5546C2.0178 11.5468 2.16792 12.5339 2.46406 13.4813H2.45361C2.06092 13.4813 1.70622 13.6314 1.45539 13.9043C1.13333 14.2546 0.989968 14.6849 1.05224 15.116C1.08067 15.314 1.14904 15.5042 1.25323 15.6751C1.03691 15.8499 0.877506 16.0931 0.800479 16.3857C0.747291 16.5884 0.737695 16.8001 0.77234 17.0069C0.806985 17.2135 0.885069 17.4106 1.00145 17.585C0.980651 17.6171 0.961597 17.6505 0.943705 17.6846C0.749685 18.0523 0.737137 18.4678 0.908503 18.8546C1.16817 19.441 1.81355 19.903 3.06713 20.3991C3.84635 20.7076 4.56004 20.9048 4.56585 20.9066C5.5966 21.1734 6.5293 21.309 7.33559 21.309C8.6612 21.309 9.64989 20.9472 10.2808 20.2323C11.3491 20.4015 12.4382 20.3954 13.5047 20.2141C14.1353 20.9409 15.1301 21.309 16.4662 21.309C17.2732 21.309 18.2054 21.1734 19.2359 20.9066C19.2422 20.9048 19.9555 20.7076 20.7346 20.3991C21.9882 19.9033 22.633 19.4412 22.8933 18.8546C23.0646 18.4676 23.0522 18.0522 22.8581 17.6846C22.8403 17.6502 22.8208 17.6169 22.8002 17.585L22.8 17.5847ZM9.8343 19.1129C9.77992 19.2079 9.72172 19.3005 9.65968 19.3906C9.49644 19.6291 9.28174 19.8113 9.03265 19.9469C8.5562 20.206 7.95334 20.2967 7.34107 20.2967C6.37352 20.2967 5.38111 20.0707 4.82577 19.9267C4.79847 19.9196 1.41821 18.9666 1.84575 18.1549C1.91778 18.0186 2.0364 17.9641 2.18558 17.9641C2.7882 17.9641 3.88529 18.8597 4.35698 18.8597C4.46224 18.8597 4.5366 18.8148 4.56692 18.7057C4.76791 17.9862 1.51255 17.6838 1.78673 16.6417C1.83518 16.4573 1.96635 16.3826 2.15096 16.3826C2.9476 16.3824 4.73596 17.781 5.11006 17.781C5.13876 17.781 5.15932 17.7726 5.17048 17.755L5.17536 17.747C5.35079 17.4577 5.25018 17.2473 4.04748 16.5121L3.932 16.4419C2.60871 15.6424 1.67926 15.1618 2.20788 14.5878C2.26865 14.5215 2.35474 14.4922 2.45941 14.4922C2.58361 14.4922 2.73383 14.5337 2.89927 14.6031C3.59821 14.8973 4.56646 15.6996 4.97193 16.0491C5.09124 16.1527 5.16153 16.2161 5.16153 16.2161C5.16153 16.2161 5.67389 16.7478 5.98374 16.7478C6.05507 16.7478 6.11549 16.7199 6.1565 16.6504C6.37631 16.2808 4.11637 14.5714 3.98858 13.8664C3.90226 13.3884 4.04922 13.1464 4.3212 13.1464C4.45039 13.1464 4.60817 13.2013 4.78232 13.3115C5.32256 13.6538 6.36585 15.4428 6.74809 16.1385C6.87612 16.3718 7.09465 16.4703 7.29158 16.4703C7.68229 16.4703 7.98773 16.0827 7.32736 15.5901C6.33483 14.8488 6.68314 13.6375 7.15681 13.5633C7.17702 13.5601 7.19747 13.5585 7.2178 13.5584C7.6486 13.5584 7.83867 14.2993 7.83867 14.2993C7.83867 14.2993 8.39552 15.6954 9.3525 16.6497C10.2207 17.5158 10.3419 18.2267 9.83615 19.1126L9.8343 19.1129ZM12.9282 19.2764L12.8786 19.2823L12.7939 19.2921C12.7494 19.2966 12.7049 19.301 12.6601 19.3052L12.6165 19.3091L12.5767 19.3125L12.5201 19.317C12.4994 19.3185 12.4786 19.3201 12.4578 19.3214L12.3955 19.3256L12.3818 19.3264L12.3327 19.3293L12.312 19.3303L12.2539 19.3332L12.1864 19.336L12.125 19.3381L12.0841 19.3393H12.0634C12.0507 19.3393 12.038 19.34 12.0252 19.3401H12.0049C11.9921 19.3401 11.9794 19.3401 11.9667 19.3408L11.9147 19.3413H11.842C11.785 19.3413 11.7281 19.3408 11.6713 19.3397L11.6253 19.3387C11.6123 19.3387 11.5992 19.338 11.5862 19.3376L11.5375 19.3361L11.4768 19.3338L11.4224 19.3315L11.4082 19.3309L11.3563 19.3281C11.3418 19.3273 11.3274 19.3266 11.3132 19.3257L11.2796 19.3237C11.2374 19.3211 11.1952 19.318 11.1531 19.3148L11.1089 19.3113L11.0531 19.3066L10.988 19.3005C10.9516 19.2972 10.9152 19.2935 10.8789 19.2894H10.8771C11.4081 18.1067 11.1396 17.0028 10.0667 15.9337C9.36307 15.2324 8.8944 14.1967 8.79797 13.9694C8.60139 13.2963 8.08102 12.5479 7.21676 12.5479C7.14368 12.548 7.07084 12.5538 6.99869 12.5651C6.62006 12.6245 6.28918 12.842 6.0531 13.1693C5.79808 12.8526 5.55004 12.6008 5.32581 12.4586C4.98773 12.2448 4.65045 12.1362 4.32167 12.1362C3.91155 12.1362 3.54477 12.3044 3.28917 12.6093L3.28278 12.6171L3.26838 12.5567L3.2678 12.5541C3.21919 12.3466 3.17835 12.1371 3.14534 11.9266C3.14534 11.9251 3.14534 11.9237 3.14464 11.9223L3.13744 11.8746C3.13355 11.8489 3.12975 11.823 3.12606 11.7973C3.12303 11.7758 3.12001 11.7544 3.11723 11.7331C3.11444 11.7117 3.11142 11.6903 3.10886 11.6688C3.10607 11.6472 3.10352 11.6258 3.10096 11.6043C3.09851 11.5839 3.09615 11.5635 3.09387 11.5431L3.09319 11.5379C3.08271 11.4437 3.07373 11.3495 3.06622 11.2551L3.06216 11.2005C3.061 11.1855 3.05995 11.1704 3.05902 11.1553C3.05902 11.1518 3.05856 11.1482 3.05832 11.1449L3.0545 11.0844C3.05311 11.0625 3.05205 11.0406 3.05089 11.0187C3.04973 10.9969 3.04856 10.9749 3.04763 10.9529L3.04531 10.8955L3.04461 10.8781L3.04287 10.825L3.0416 10.78C3.0416 10.7621 3.04078 10.744 3.04043 10.726L3.0395 10.6693C3.03927 10.6504 3.0395 10.6316 3.03904 10.6127C3.03846 10.5937 3.03904 10.5748 3.03904 10.5558C3.03904 5.70311 6.98103 1.76881 11.8443 1.76881C16.7076 1.76881 20.6496 5.70311 20.6496 10.5558V10.6693C20.6496 10.6882 20.6492 10.7072 20.6487 10.726C20.6487 10.7418 20.6481 10.7572 20.6476 10.773C20.6476 10.787 20.6471 10.8009 20.6465 10.8145C20.6465 10.8322 20.6454 10.8498 20.6449 10.8676V10.8691C20.6433 10.9076 20.6417 10.9461 20.6401 10.9846L20.6394 10.9973L20.6364 11.0548L20.6336 11.1004C20.6271 11.2084 20.6186 11.3163 20.6083 11.424V11.4255C20.6064 11.4457 20.6043 11.466 20.6021 11.4862C20.597 11.5331 20.5918 11.5801 20.5865 11.6271L20.5806 11.6743L20.5733 11.7297C20.5707 11.75 20.5679 11.7702 20.565 11.7903C20.5619 11.8129 20.5585 11.8354 20.5553 11.8579L20.5471 11.911L20.5376 11.9713C20.5344 11.9914 20.5311 12.0113 20.5273 12.0314C20.5233 12.0513 20.5203 12.0713 20.5168 12.0913C20.5099 12.1312 20.5026 12.171 20.4949 12.2108C20.4794 12.29 20.4633 12.3689 20.4462 12.4478C20.4419 12.4674 20.4375 12.4871 20.4329 12.5067C20.1851 12.2663 19.857 12.1354 19.495 12.1354C19.1666 12.1354 18.829 12.2438 18.491 12.4578C18.2666 12.5999 18.0188 12.8518 17.7636 13.1684C17.5272 12.8411 17.1963 12.6237 16.8181 12.5642C16.746 12.553 16.673 12.5472 16.5999 12.547C15.7357 12.547 15.2151 13.2953 15.0187 13.9686C14.9212 14.196 14.453 15.2314 13.7489 15.9341C12.6768 17.0006 12.4058 18.1001 12.9289 19.277L12.9282 19.2764ZM22.0181 16.9098L22.0146 16.9201C22.0122 16.9267 22.0097 16.9333 22.0071 16.9398C22.0029 16.9497 21.9985 16.9593 21.9938 16.9689C21.9826 16.9919 21.9698 17.0142 21.9557 17.0355C21.9363 17.0644 21.9151 17.092 21.8919 17.1179C21.8866 17.124 21.8815 17.1299 21.8754 17.1358C21.8673 17.1447 21.8586 17.1534 21.85 17.1621C21.6935 17.3169 21.4551 17.4525 21.1856 17.577C21.155 17.5908 21.1241 17.6046 21.0927 17.6184L21.0616 17.6322C21.0408 17.6414 21.0201 17.6505 20.9983 17.6594C20.977 17.6685 20.9556 17.6774 20.9343 17.6862L20.8694 17.713C20.7178 17.7753 20.5625 17.8345 20.4109 17.8932L20.3462 17.9182L20.282 17.9433C20.2395 17.9599 20.1974 17.9765 20.156 17.993L20.0943 18.0179L20.0337 18.0427L20.0039 18.0551C19.9841 18.0634 19.9646 18.0715 19.9453 18.0799C19.4994 18.2708 19.1788 18.465 19.2462 18.706C19.248 18.7129 19.2501 18.7194 19.2524 18.7256C19.2585 18.7435 19.2667 18.7604 19.2769 18.7762C19.283 18.7857 19.29 18.7946 19.2977 18.8027C19.377 18.8848 19.5212 18.8719 19.703 18.8067C19.7177 18.8014 19.7328 18.7957 19.7481 18.7896C19.7585 18.7857 19.7689 18.7815 19.7793 18.7773L19.795 18.7707C19.8366 18.7531 19.8806 18.7335 19.9257 18.7121C19.937 18.7069 19.9484 18.7017 19.9597 18.6957C20.182 18.5873 20.434 18.4411 20.684 18.3081C20.7223 18.2873 20.7608 18.2675 20.799 18.2478C20.8615 18.2154 20.9246 18.1842 20.9883 18.1544C21.2251 18.0434 21.4475 17.9645 21.6266 17.9645C21.7105 17.9645 21.7847 17.9817 21.8464 18.0211L21.8567 18.0279C21.888 18.05 21.9152 18.077 21.9374 18.1081C21.9425 18.1154 21.9478 18.1229 21.9523 18.1307C21.9572 18.1387 21.9619 18.1469 21.9663 18.1553C22.0547 18.3227 21.9807 18.4963 21.8076 18.6664C21.6413 18.8296 21.3827 18.9898 21.0887 19.1381C21.0669 19.1491 21.045 19.1601 21.0229 19.1708C20.148 19.5996 19.0025 19.9225 18.9863 19.9266C18.6809 20.0055 18.2443 20.1093 17.7524 20.1869L17.6796 20.1981L17.6677 20.1999C17.5562 20.2166 17.4443 20.2313 17.3322 20.244L17.3219 20.2451C17.118 20.2683 16.9088 20.2851 16.6994 20.2922H16.6962C16.621 20.295 16.5458 20.2962 16.4705 20.2962H16.3838C16.269 20.2946 16.1544 20.2895 16.0399 20.2807C16.0373 20.2807 16.0345 20.2807 16.0317 20.2801C15.9908 20.277 15.9498 20.2732 15.909 20.2686C15.8388 20.2611 15.7688 20.2518 15.6989 20.2409C15.6718 20.2364 15.6427 20.2316 15.6147 20.2268C15.6019 20.2245 15.5893 20.2221 15.5766 20.2196L15.5736 20.219C15.5333 20.2113 15.4932 20.2029 15.4532 20.1937C15.4301 20.1885 15.4069 20.1833 15.384 20.1771L15.3703 20.1735C15.3589 20.1708 15.3477 20.1678 15.3366 20.1647L15.3304 20.1631L15.2945 20.1528C15.2815 20.1491 15.2686 20.1453 15.2556 20.1414L15.251 20.14L15.2172 20.1297C15.2044 20.1258 15.1917 20.1216 15.179 20.1175C15.1686 20.1141 15.1582 20.1105 15.1478 20.1071L15.1249 20.0991C15.1028 20.0915 15.081 20.0833 15.0591 20.075L15.0385 20.067L15.0214 20.0601C14.9885 20.0469 14.9557 20.0331 14.9233 20.0186L14.9017 20.0083L14.8981 20.0067C14.8905 20.0031 14.8829 19.9995 14.8752 19.9963C14.8602 19.9891 14.8454 19.9816 14.8306 19.9741L14.8262 19.9719L14.8048 19.9607C14.7668 19.9409 14.7295 19.9198 14.6931 19.8973L14.6731 19.8852C14.6627 19.8789 14.6533 19.8725 14.6435 19.8662L14.6174 19.8489C14.608 19.8426 14.5986 19.8362 14.5894 19.8296L14.5727 19.8178C14.555 19.8052 14.5377 19.7923 14.5207 19.779C14.5116 19.772 14.5026 19.7648 14.4937 19.7582C14.4738 19.7423 14.4544 19.726 14.4353 19.7092L14.4344 19.7085C14.4157 19.6923 14.3975 19.6756 14.3797 19.6586L14.3788 19.6574C14.3695 19.6486 14.3604 19.6398 14.3514 19.6307C14.3424 19.6215 14.3334 19.6124 14.3247 19.6033C14.3158 19.594 14.307 19.5846 14.2984 19.575C14.29 19.566 14.2819 19.5568 14.2738 19.5475L14.271 19.5444C14.229 19.4958 14.1898 19.4449 14.1534 19.3919L14.139 19.3707C14.1295 19.3567 14.1201 19.3425 14.1108 19.3284L14.0833 19.2863C14.0699 19.2657 14.0567 19.245 14.044 19.2241C14.0348 19.2093 14.0257 19.1944 14.0168 19.1795C14.0092 19.1667 14.0017 19.1541 13.9945 19.1416C13.9904 19.1347 13.9866 19.1278 13.9827 19.1208C13.9789 19.1136 13.9744 19.1063 13.9703 19.099L13.9638 19.0875C13.9616 19.0837 13.9609 19.0825 13.9597 19.08C13.9518 19.0662 13.9442 19.0522 13.9367 19.0379C13.9334 19.0318 13.93 19.0255 13.9264 19.0193L13.9159 18.9994L13.9056 18.9796L13.8856 18.9393C13.8824 18.9327 13.8792 18.9261 13.8761 18.9195C13.8692 18.9052 13.8627 18.8912 13.8562 18.8772C13.8537 18.8715 13.851 18.8658 13.8487 18.8601C13.8397 18.8408 13.8312 18.8212 13.8232 18.8014C13.8178 18.7882 13.8128 18.7753 13.8074 18.7623C13.7924 18.724 13.7784 18.6854 13.7655 18.6463C13.7616 18.6347 13.7578 18.6232 13.7544 18.6117C13.7461 18.5853 13.7385 18.5588 13.7318 18.532C13.7235 18.5008 13.7162 18.4693 13.7101 18.4376C13.7061 18.4189 13.7026 18.4002 13.6997 18.3813C13.6966 18.3626 13.6939 18.3439 13.6917 18.3254C13.6869 18.2884 13.6836 18.2513 13.6816 18.214C13.6816 18.2079 13.681 18.2016 13.6809 18.1955C13.6803 18.1832 13.68 18.1709 13.6799 18.1586C13.6734 17.6633 13.9246 17.1868 14.4617 16.6512C15.4184 15.6973 15.9756 14.3008 15.9756 14.3008C15.9756 14.3008 15.9906 14.2423 16.0218 14.1581C16.0323 14.1302 16.0432 14.1023 16.0547 14.0749C16.0678 14.0438 16.0819 14.013 16.097 13.9829L16.1014 13.9741C16.1208 13.9356 16.1418 13.8981 16.1647 13.8616C16.1699 13.8531 16.1751 13.8447 16.1811 13.8363C16.1981 13.8111 16.2161 13.7866 16.235 13.7628C16.2496 13.7446 16.2652 13.727 16.2816 13.7103C16.3371 13.6532 16.4004 13.6066 16.4721 13.5817L16.4812 13.5788C16.4872 13.5768 16.4932 13.575 16.4993 13.5732C16.5065 13.5714 16.5137 13.5696 16.5209 13.5681L16.5242 13.5676C16.5394 13.5645 16.5546 13.5625 16.5701 13.5614H16.5715C16.5795 13.5614 16.5875 13.5606 16.5957 13.5606C16.6163 13.5607 16.6368 13.5623 16.6571 13.5655C16.7433 13.579 16.8254 13.6303 16.8961 13.7094L16.9056 13.7205C16.9286 13.7474 16.9495 13.7762 16.9681 13.8063C16.982 13.8287 16.9952 13.8522 17.0076 13.8769C17.0126 13.8874 17.0174 13.8969 17.0221 13.9071C17.0245 13.9123 17.0268 13.9174 17.029 13.9227C17.0336 13.933 17.0379 13.9435 17.0422 13.9544C17.0665 14.0165 17.0853 14.0806 17.0986 14.146C17.1126 14.2167 17.1208 14.2883 17.1231 14.3603C17.1239 14.392 17.1239 14.424 17.1231 14.4565C17.1225 14.4687 17.1219 14.4812 17.121 14.4936C17.1115 14.6314 17.0814 14.7671 17.0317 14.8961C17.0267 14.9089 17.0212 14.9219 17.0161 14.9349C16.9911 14.9945 16.9621 15.0522 16.9293 15.1079C16.9106 15.1397 16.8904 15.1712 16.8688 15.2025L16.8555 15.2213C16.8043 15.2927 16.7471 15.3597 16.6846 15.4217C16.623 15.4832 16.5571 15.5402 16.4872 15.5922C16.4172 15.6438 16.3515 15.7011 16.2909 15.7634C16.1163 15.9463 16.0756 16.1076 16.1149 16.23C16.1195 16.2438 16.125 16.2573 16.1313 16.2704C16.1458 16.2988 16.1646 16.3249 16.1871 16.3477L16.1933 16.3538C16.1997 16.3599 16.2064 16.3659 16.2133 16.3715L16.2203 16.3772C16.2372 16.3902 16.2551 16.4018 16.2738 16.4119C16.2792 16.4148 16.2841 16.4177 16.2903 16.4205C16.316 16.4332 16.3428 16.4434 16.3705 16.4512L16.3781 16.4532L16.3885 16.456L16.3975 16.4582L16.4072 16.4602L16.4168 16.4622L16.426 16.4637C16.4329 16.465 16.4398 16.466 16.4467 16.467L16.4534 16.4679L16.4654 16.4692L16.4728 16.4699L16.4851 16.4708H16.4922L16.505 16.4714H16.5453L16.5568 16.4708L16.5701 16.47L16.5862 16.4685L16.6013 16.4666C16.6047 16.4666 16.6082 16.4657 16.6117 16.4651C16.6649 16.4573 16.7167 16.4424 16.7657 16.4206C16.7762 16.4162 16.7865 16.4113 16.796 16.4062C16.8165 16.396 16.8364 16.3845 16.8554 16.3719C16.882 16.3545 16.9071 16.3349 16.9307 16.3136L16.9471 16.298C16.9496 16.2955 16.9523 16.293 16.9547 16.2904C16.9708 16.2744 16.9859 16.2574 16.9999 16.2397C17.0248 16.2084 17.0469 16.1751 17.066 16.1401C17.2934 15.7275 17.5317 15.321 17.7807 14.9214L17.8148 14.8668L17.8493 14.8121C17.8666 14.7845 17.8839 14.7571 17.9013 14.7301L17.9188 14.7029L17.9538 14.6485C18.0007 14.576 18.0478 14.5043 18.0952 14.4334L18.1306 14.3805C18.2017 14.2754 18.2727 14.1732 18.3429 14.0759L18.3779 14.0279C18.4543 13.9226 18.5339 13.8198 18.6165 13.7193L18.6493 13.6801C18.6547 13.6735 18.6597 13.6672 18.6656 13.6608L18.6978 13.6236C18.7031 13.6174 18.7082 13.6114 18.7138 13.6055L18.745 13.5703L18.7606 13.5534C18.7757 13.5371 18.7911 13.5209 18.8067 13.5049C18.8171 13.4946 18.8268 13.4842 18.8369 13.4746C18.8958 13.4144 18.9607 13.3605 19.0308 13.3137L19.0469 13.3034L19.0633 13.293C19.0738 13.2865 19.0843 13.2802 19.0951 13.2743C19.3698 13.1188 19.5973 13.1073 19.7281 13.2379C19.8074 13.3171 19.8512 13.4482 19.8489 13.6306C19.8489 13.6387 19.8489 13.6467 19.8482 13.6551V13.6641C19.8482 13.6724 19.8475 13.6808 19.8469 13.6893C19.8469 13.6996 19.8456 13.7101 19.8446 13.7204C19.8436 13.7308 19.8431 13.7387 19.842 13.7479C19.842 13.7505 19.8415 13.7532 19.8411 13.7559C19.8403 13.764 19.8393 13.7722 19.8382 13.7803C19.8382 13.7829 19.8382 13.7853 19.8372 13.7879C19.836 13.7989 19.8344 13.8099 19.8324 13.8208C19.8311 13.8309 19.8295 13.841 19.8275 13.8511C19.8267 13.8569 19.8256 13.8625 19.8246 13.8683C19.8216 13.8848 19.8177 13.9012 19.8129 13.9172C19.8039 13.9471 19.793 13.9764 19.7801 14.0049C19.7745 14.0173 19.7686 14.0297 19.7626 14.0419C19.75 14.0671 19.7359 14.0928 19.7203 14.1195C19.7125 14.1326 19.7045 14.1462 19.6959 14.1597L19.6829 14.1804C19.6696 14.2011 19.6558 14.2221 19.6414 14.2433C19.627 14.2646 19.6115 14.2862 19.5949 14.3081C19.5734 14.3374 19.5508 14.3672 19.5269 14.3973L19.5087 14.4202C19.4575 14.4838 19.405 14.5464 19.3513 14.608L19.3087 14.6561L19.2869 14.6805C19.2573 14.7135 19.2276 14.7463 19.1976 14.7789L19.1746 14.8037C19.1594 14.8202 19.1435 14.8369 19.1282 14.8535C19.1127 14.8703 19.0969 14.887 19.0811 14.9037L19.0332 14.954L18.9848 15.0045C18.9686 15.0213 18.9523 15.0383 18.936 15.0551L18.8373 15.1566C18.3662 15.6388 17.8698 16.1195 17.7018 16.4193C17.6906 16.4389 17.6805 16.459 17.6713 16.4795C17.6475 16.534 17.6375 16.5806 17.6443 16.6183C17.6465 16.6307 17.6509 16.6426 17.6573 16.6534C17.6668 16.6698 17.6783 16.6849 17.6916 16.6983C17.6977 16.7043 17.7041 16.71 17.7111 16.7151C17.7456 16.7397 17.7874 16.7523 17.8298 16.7511H17.8431L17.8566 16.7501L17.8704 16.7485L17.8816 16.7469C17.8831 16.7468 17.8846 16.7464 17.8862 16.7461L17.8965 16.7441L17.8993 16.7434L17.9107 16.741L17.9269 16.7368L17.9415 16.7325C17.951 16.7296 17.9605 16.7264 17.9703 16.7228C17.9913 16.7153 18.0119 16.7068 18.032 16.6971C18.0371 16.6947 18.0423 16.6924 18.0473 16.6897L18.0627 16.6821C18.083 16.6719 18.1031 16.6608 18.1233 16.6489C18.1394 16.6394 18.1555 16.6297 18.1715 16.6193L18.1871 16.609C18.1922 16.6058 18.1974 16.6024 18.2025 16.5986L18.218 16.5883L18.2261 16.5826L18.2484 16.567C18.2692 16.5527 18.2886 16.5379 18.3084 16.523L18.3101 16.5217L18.3412 16.4976C18.3839 16.464 18.4244 16.4301 18.461 16.3982L18.4854 16.3768L18.4877 16.3747L18.5004 16.3634C18.5304 16.3366 18.5571 16.3116 18.5794 16.2908L18.5885 16.282L18.6104 16.2613L18.6236 16.2485L18.6281 16.2439L18.6294 16.2426C18.6405 16.2315 18.6405 16.2315 18.6517 16.2202L18.6526 16.2193L18.6568 16.2156C18.6581 16.2142 18.6598 16.2128 18.6618 16.2111L18.6634 16.2096L18.6678 16.2056L18.6914 16.1849L18.7046 16.1729C18.7112 16.1673 18.7182 16.161 18.7254 16.1541L18.7414 16.1402C18.7441 16.1379 18.7469 16.1352 18.7498 16.1327L18.7665 16.1182L18.791 16.0968L18.8039 16.0856C18.8544 16.0417 18.916 15.9887 18.9865 15.9289L19.0154 15.9046L19.0633 15.8646L19.1121 15.8238C19.176 15.7709 19.2448 15.7147 19.3175 15.6562L19.3652 15.618C19.4059 15.5857 19.4477 15.5527 19.49 15.5195C19.507 15.5062 19.5243 15.4928 19.542 15.4796C19.5853 15.4462 19.6289 15.413 19.6725 15.3801C19.7722 15.305 19.875 15.2297 19.979 15.1564L20.0238 15.1254C20.0549 15.1038 20.086 15.0824 20.1173 15.0614L20.1455 15.0423C20.2014 15.0047 20.2577 14.9679 20.3146 14.932L20.3428 14.9142L20.3708 14.8968C20.3988 14.8796 20.4268 14.8624 20.4544 14.8458L20.4822 14.8294L20.5379 14.797C20.5561 14.7865 20.5742 14.7761 20.5923 14.7659L20.6033 14.7598L20.6465 14.7362C20.6644 14.7265 20.6824 14.7171 20.7002 14.708L20.7269 14.6943L20.7527 14.6812C20.8117 14.6516 20.8718 14.6242 20.9329 14.5992C20.9412 14.5957 20.9495 14.5924 20.9577 14.5888C20.9741 14.5819 20.9904 14.5757 21.0065 14.5701C21.0227 14.5646 21.0386 14.559 21.0543 14.5534C21.0686 14.5486 21.0824 14.5442 21.0959 14.5401L21.1004 14.5387C21.1076 14.5365 21.1148 14.5344 21.122 14.5325L21.1241 14.5319C21.1387 14.5278 21.1534 14.5239 21.1681 14.5205H21.1693C21.191 14.5152 21.2122 14.5108 21.2328 14.5074C21.2399 14.5062 21.2469 14.505 21.2536 14.5041C21.2737 14.5011 21.294 14.499 21.3142 14.4976C21.3269 14.4967 21.3398 14.4963 21.3526 14.4963H21.3624C21.3754 14.4963 21.3879 14.4972 21.4004 14.4984C21.4061 14.4984 21.4118 14.4995 21.4173 14.5003H21.4197C21.4252 14.5009 21.4309 14.5018 21.4364 14.503C21.4418 14.5041 21.4474 14.5049 21.4528 14.5062H21.4546C21.46 14.5074 21.465 14.5089 21.4705 14.5104C21.5149 14.5223 21.5557 14.5448 21.5895 14.5759L21.5925 14.5789L21.5985 14.5847L21.6043 14.5908C21.6509 14.6398 21.6894 14.6958 21.7185 14.7568L21.723 14.7671C21.7329 14.7903 21.7407 14.8143 21.7461 14.8389C21.7612 14.9074 21.7572 14.9788 21.7343 15.0451C21.7244 15.074 21.7123 15.1021 21.698 15.129L21.6885 15.1461C21.6523 15.2068 21.6095 15.2633 21.5608 15.3145L21.5504 15.3255C21.5275 15.3498 21.5037 15.3733 21.4791 15.3959C21.4714 15.4032 21.4633 15.4105 21.4552 15.4178L21.4429 15.429C21.4173 15.4516 21.3912 15.4736 21.3647 15.4952C21.3601 15.4989 21.3553 15.5026 21.3508 15.5065C21.3323 15.5214 21.3132 15.5364 21.2935 15.5515C21.2254 15.6035 21.156 15.6536 21.0854 15.7019C21.0438 15.7303 21.0008 15.759 20.9564 15.7881C20.8737 15.8422 20.7904 15.8952 20.7063 15.9472C20.682 15.9621 20.6576 15.9773 20.6328 15.9924C20.4042 16.1327 20.1509 16.2827 19.8806 16.4459L19.8107 16.4883C19.7341 16.5349 19.6619 16.5794 19.5939 16.6218L19.5596 16.6433L19.4948 16.6849C19.4691 16.7011 19.4441 16.7171 19.4198 16.7329C19.4015 16.7446 19.3836 16.7562 19.3661 16.7676L19.3314 16.7904C19.3146 16.8014 19.2979 16.8124 19.2811 16.8236L19.2649 16.834C19.2477 16.8454 19.2309 16.8567 19.2147 16.8678L19.1881 16.8859L19.1568 16.9076L19.128 16.9277C19.0825 16.9595 19.0375 16.9921 18.9929 17.0253L18.9773 17.0371C18.9598 17.0503 18.9428 17.0636 18.9264 17.0764L18.9051 17.0935C18.869 17.1223 18.8364 17.1501 18.8069 17.1765L18.7925 17.1897C18.7842 17.1973 18.7761 17.2048 18.7684 17.2122C18.763 17.2173 18.758 17.2225 18.7525 17.2276L18.745 17.2351C18.7283 17.2516 18.7122 17.2687 18.6965 17.2862L18.6888 17.295C18.6718 17.3147 18.6569 17.3336 18.6438 17.352L18.638 17.3604C18.6229 17.3824 18.6095 17.4057 18.5981 17.43L18.5942 17.4384L18.5917 17.4443L18.5897 17.4494L18.5871 17.4565C18.5863 17.459 18.5846 17.4632 18.5837 17.467C18.5789 17.4808 18.5755 17.495 18.5731 17.5095L18.572 17.5173L18.571 17.5244L18.5705 17.5312V17.5676C18.5705 17.5706 18.5705 17.5738 18.5712 17.5769C18.5713 17.5787 18.5715 17.5806 18.5717 17.5824C18.5717 17.5855 18.5725 17.5885 18.5729 17.5916L18.5751 17.6044V17.6049C18.5759 17.609 18.5767 17.6131 18.5778 17.6171C18.5788 17.6212 18.5799 17.6257 18.5811 17.63C18.5849 17.6431 18.5894 17.6561 18.5946 17.6687C18.5946 17.6696 18.5954 17.6707 18.5958 17.6716C18.5972 17.6747 18.5985 17.678 18.6 17.6811C18.6057 17.6943 18.6121 17.7072 18.619 17.7199L18.6263 17.733L18.634 17.7462L18.642 17.7594C18.6434 17.7616 18.6449 17.7636 18.6467 17.7655L18.6493 17.7683L18.6521 17.7709L18.6553 17.7733C18.6574 17.7748 18.6596 17.7761 18.6619 17.7774C18.6642 17.7784 18.6668 17.7796 18.6693 17.7805C18.6721 17.7814 18.6749 17.7822 18.6777 17.7829C18.7447 17.798 18.8825 17.7426 19.0655 17.6461L19.0984 17.6287L19.154 17.5984L19.1813 17.5834C19.2006 17.5729 19.2205 17.5613 19.2406 17.5499L19.2774 17.5291C19.5194 17.3901 19.8086 17.2114 20.1074 17.037C20.1353 17.0207 20.1634 17.0044 20.1915 16.9882L20.248 16.9522C20.2762 16.936 20.3043 16.92 20.3326 16.9042C20.4527 16.8361 20.5744 16.7705 20.6975 16.7078L20.7527 16.6799C20.7894 16.6618 20.8257 16.6442 20.8616 16.627C20.9312 16.5941 21.0015 16.5629 21.0725 16.5333L21.1114 16.5175L21.1162 16.5157C21.3223 16.4342 21.5092 16.3837 21.6605 16.3837C21.6933 16.3835 21.7259 16.3862 21.7582 16.3917H21.7591C21.7696 16.3936 21.779 16.3957 21.7885 16.3981H21.7903C21.8042 16.4015 21.8179 16.4058 21.8312 16.4111C21.8417 16.4149 21.852 16.4194 21.8618 16.4248C21.9052 16.4467 21.9422 16.479 21.9699 16.5189C21.9722 16.5223 21.9744 16.5258 21.9765 16.5294C21.9867 16.5449 21.9956 16.5612 22.0028 16.5784C22.0071 16.5883 22.011 16.5985 22.0147 16.6095C22.0184 16.6206 22.0217 16.6313 22.0251 16.6428C22.0497 16.7307 22.0473 16.8236 22.0181 16.9101V16.9098Z" fill="#FF9D00"/>
<path d="M20.6371 10.6089V10.5521C20.6371 5.69944 16.6963 1.76514 11.833 1.76514C6.97085 1.76514 3.0277 5.69944 3.0277 10.5521L3.02745 10.5711C3.02745 10.5838 3.02745 10.5963 3.02745 10.6089C3.02814 10.6278 3.02834 10.6467 3.02817 10.6656L3.02886 10.7074L3.02909 10.7224L3.02968 10.7431C3.02991 10.7542 3.03026 10.7652 3.03026 10.7764L3.03142 10.8215L3.03328 10.8745L3.03386 10.8918L3.03618 10.9467V10.9492L3.03943 11.0134V11.015C3.0406 11.0369 3.04176 11.0588 3.04315 11.0806C3.04431 11.1009 3.04559 11.1211 3.04699 11.1413L3.04733 11.1449C3.04836 11.1621 3.04952 11.1795 3.05082 11.1968L3.05117 11.2013C3.05233 11.218 3.05361 11.2348 3.055 11.2514L3.05523 11.2547L3.05756 11.2837C3.06452 11.3673 3.07265 11.4509 3.08196 11.5342L3.08254 11.5394L3.08951 11.6007L3.09752 11.6651C3.1029 11.708 3.10864 11.7508 3.11472 11.7936C3.11834 11.8195 3.12211 11.8452 3.12599 11.871L3.12657 11.8741C3.13525 11.9323 3.14461 11.9905 3.15469 12.0485C3.18358 12.2167 3.21752 12.3842 3.25646 12.5504L3.25704 12.5531L3.26076 12.5688C3.26424 12.5836 3.26773 12.5985 3.27145 12.6134L3.27784 12.6056C3.53343 12.3007 3.9001 12.1326 4.31033 12.1326C4.63912 12.1326 4.97651 12.241 5.31447 12.4549C5.5387 12.5971 5.78663 12.8489 6.04176 13.1656C6.27784 12.8382 6.60872 12.6208 6.98724 12.5615C7.0595 12.5501 7.13246 12.5443 7.20542 12.5442C8.06945 12.5442 8.59029 13.2926 8.78663 13.9658C8.88364 14.1933 9.35185 15.2285 10.0576 15.93C11.1306 16.9999 11.3995 18.1042 10.8681 19.2857H10.8699C10.9061 19.2897 10.9425 19.2934 10.979 19.2967C11.0007 19.2988 11.0224 19.3009 11.0441 19.3028L11.0518 19.3035C11.0677 19.305 11.0837 19.3064 11.0998 19.3075L11.1439 19.3111C11.186 19.3144 11.2282 19.3173 11.2706 19.3201L11.304 19.322L11.3306 19.3235L11.3472 19.3245L11.3991 19.3272L11.4132 19.3278L11.4678 19.3301L11.5284 19.3325L11.5772 19.3339L11.5853 19.3342C11.5955 19.3345 11.606 19.335 11.6163 19.335L11.6274 19.3352C11.6959 19.3369 11.7643 19.3377 11.8329 19.3377H11.9056L11.9577 19.3371C11.9704 19.3364 11.9831 19.3364 11.9959 19.3364H12.0161L12.0336 19.3361C12.0405 19.3358 12.0475 19.3356 12.0543 19.3356H12.0751L12.1159 19.3344L12.1772 19.3323L12.2449 19.3294C12.2643 19.3286 12.2835 19.3277 12.3029 19.3267L12.3237 19.3255L12.3545 19.3238L12.3728 19.3227L12.3864 19.3219L12.4487 19.3177C12.4695 19.3165 12.4903 19.3148 12.5111 19.3132L12.5676 19.3088L12.6074 19.3054L12.651 19.3015C12.6957 19.2973 12.7404 19.2929 12.7847 19.2883C12.8131 19.2852 12.8412 19.282 12.8694 19.2787L12.919 19.2727C12.3963 18.0958 12.6669 16.9966 13.7356 15.931C14.4398 15.2286 14.9078 14.1928 15.0054 13.9655C15.2021 13.2924 15.722 12.544 16.5866 12.544C16.6597 12.5441 16.7327 12.5498 16.8048 12.5612C17.183 12.6206 17.514 12.8381 17.7504 13.1653C18.0056 12.8487 18.2535 12.5968 18.4777 12.4547C18.8156 12.2407 19.1533 12.1323 19.4817 12.1323C19.8437 12.1323 20.1719 12.2633 20.4197 12.5036C20.4333 12.4431 20.4465 12.3825 20.459 12.3218C20.4667 12.2839 20.4742 12.2458 20.4817 12.2077C20.4907 12.1608 20.4993 12.1138 20.5072 12.0667C20.5093 12.0539 20.5115 12.0412 20.514 12.0283C20.5178 12.0082 20.5212 11.9884 20.5243 11.9682L20.5256 11.9606L20.5338 11.9081L20.542 11.8548L20.5421 11.8543C20.5453 11.832 20.5487 11.8096 20.5517 11.7872C20.5542 11.7703 20.5565 11.7534 20.5587 11.7363L20.5601 11.7266L20.5673 11.6712L20.5732 11.624C20.5768 11.5929 20.5803 11.5618 20.5837 11.5306C20.5852 11.5182 20.5865 11.5057 20.5877 11.4932L20.5889 11.4831C20.5911 11.4623 20.5931 11.4417 20.5949 11.4209L20.5996 11.3727C20.6092 11.2658 20.617 11.1589 20.6231 11.0517V11.0511L20.6262 10.9942L20.6268 10.9815L20.6291 10.9276C20.63 10.9073 20.6308 10.8867 20.6315 10.866V10.8645L20.6321 10.8495C20.6327 10.8368 20.6332 10.824 20.6332 10.8114L20.6334 10.8062C20.6339 10.7943 20.6343 10.782 20.6343 10.7699L20.6347 10.7594C20.635 10.7473 20.6354 10.7352 20.6354 10.723L20.6356 10.7127C20.636 10.6972 20.6363 10.6817 20.6363 10.6662L20.6371 10.6089ZM9.64997 19.3878C10.3472 18.3671 10.2978 17.6009 9.34104 16.6466C8.3843 15.6923 7.82722 14.2962 7.82722 14.2962C7.82722 14.2962 7.61937 13.4855 7.14536 13.5601C6.67134 13.6345 6.32361 14.846 7.31602 15.5869C8.30844 16.3285 7.11863 16.8311 6.73663 16.1354C6.35452 15.4394 5.31227 13.6505 4.77087 13.3084C4.23016 12.9663 3.84991 13.158 3.97736 13.8633C4.04067 14.2133 4.62948 14.8107 5.17982 15.3684C5.73795 15.9348 6.25623 16.4606 6.14551 16.6462C5.92558 17.0158 5.15101 16.2119 5.15101 16.2119C5.15101 16.2119 2.72517 14.0088 2.19771 14.5828C1.71103 15.1119 2.46155 15.5616 3.61859 16.2548C3.717 16.3138 3.81831 16.3746 3.92205 16.4372C5.24535 17.2368 5.34875 17.4478 5.16054 17.7498C5.09118 17.8616 4.64818 17.5962 4.1033 17.2696C3.17444 16.7131 1.94932 15.9791 1.77621 16.6361C1.62645 17.2046 2.52754 17.5529 3.34464 17.8687C4.02545 18.1319 4.64818 18.3726 4.5564 18.6994C4.46148 19.0381 3.94692 18.7556 3.38414 18.4467C2.7527 18.0999 2.06085 17.7199 1.8343 18.1487C1.40629 18.9592 4.78643 19.9135 4.81432 19.9205C5.90641 20.2032 8.67963 20.8022 9.64973 19.3844L9.64997 19.3878ZM14.1415 19.3878C13.4442 18.3671 13.4937 17.6009 14.4504 16.6466C15.4072 15.6923 15.9642 14.2962 15.9642 14.2962C15.9642 14.2962 16.172 13.4855 16.646 13.5601C17.12 13.6345 17.4678 14.846 16.4753 15.5869C15.4828 16.3279 16.6727 16.8311 17.0548 16.1354C17.4368 15.4394 18.4792 13.6505 19.0194 13.3084C19.5597 12.9664 19.9405 13.158 19.8131 13.8633C19.7497 14.2133 19.1609 14.8108 18.6106 15.3695C18.0526 15.9358 17.5343 16.4617 17.645 16.6473C17.8648 17.017 18.6401 16.2126 18.6401 16.2126C18.6401 16.2126 21.0659 14.0095 21.5934 14.5835C22.0801 15.1126 21.3294 15.5625 20.1725 16.2555C20.0741 16.3144 19.9729 16.3751 19.8692 16.4378C18.5459 17.2373 18.4425 17.4483 18.6307 17.7504C18.7 17.8622 19.143 17.5967 19.6878 17.2703C20.6168 16.7138 21.8418 15.9798 22.0149 16.6367C22.1647 17.2052 21.2636 17.5536 20.4465 17.8692C19.7657 18.1325 19.1429 18.3731 19.2347 18.6999C19.3296 19.0386 19.844 18.7561 20.4058 18.4472C21.0372 18.1003 21.7291 17.7202 21.9556 18.1492C22.3837 18.9602 19.0035 19.914 18.9756 19.9209C17.8835 20.2044 15.1103 20.8034 14.1414 19.3857L14.1415 19.3878Z" fill="#FFD21E"/>
<path d="M14.7019 8.15993C14.8391 8.2084 14.9413 8.35601 15.0384 8.49631C15.1697 8.68613 15.2919 8.86261 15.4794 8.76312C15.7007 8.64578 15.8821 8.46558 16.0007 8.24527C16.1193 8.02496 16.1698 7.77462 16.1457 7.52566C16.1278 7.33956 16.0688 7.15971 15.9728 6.99912C15.8769 6.83852 15.7464 6.70112 15.5909 6.59687C15.4354 6.49265 15.2586 6.42422 15.0734 6.39639C14.8881 6.36857 14.6989 6.38213 14.5195 6.43606C14.2796 6.50817 14.0665 6.64964 13.9071 6.84259C13.7479 7.03554 13.6493 7.27127 13.6241 7.51999C13.599 7.76883 13.6484 8.01952 13.766 8.2403C13.8529 8.40344 14.0457 8.32657 14.2493 8.24528C14.4089 8.18162 14.5751 8.11529 14.7019 8.15993ZM8.7326 8.16004C8.59539 8.20851 8.49315 8.35612 8.39603 8.49643C8.26474 8.68613 8.14252 8.86272 7.95501 8.76324C7.78968 8.67546 7.64597 8.55208 7.53409 8.40216C7.4222 8.25223 7.34506 8.07946 7.30812 7.89613C7.27117 7.71293 7.27535 7.52369 7.32043 7.34234C7.36562 7.16087 7.45044 6.9917 7.56882 6.84687C7.68744 6.70216 7.83662 6.58551 8.00578 6.50515C8.17494 6.4248 8.35989 6.38306 8.54718 6.38259C8.73446 6.38219 8.91953 6.42322 9.08904 6.50272C9.25855 6.58225 9.4083 6.69833 9.5275 6.84246C9.6869 7.03541 9.78542 7.27114 9.81063 7.51998C9.83573 7.76882 9.78635 8.01951 9.66866 8.24029C9.58153 8.40343 9.38867 8.32644 9.18512 8.24516C9.02561 8.1815 8.85947 8.11529 8.7326 8.16004ZM13.7783 13.5809C14.7244 12.8369 15.0714 11.6224 15.0714 10.8745C15.0714 10.2832 14.6727 10.4693 14.0345 10.7845L13.9986 10.8024C13.4127 11.0919 12.6323 11.4774 11.7772 11.4774C10.9211 11.4774 10.1414 11.0918 9.55585 10.8023C8.89699 10.4766 8.48374 10.2723 8.48374 10.8746C8.48374 11.6463 8.85343 12.9131 9.86861 13.6494C10.0024 13.3781 10.1909 13.1372 10.4223 12.942C10.6536 12.7467 10.9229 12.6013 11.2133 12.5147C11.3146 12.4845 11.4189 12.6586 11.5258 12.8367C11.6289 13.0086 11.7341 13.1844 11.8413 13.1844C11.9554 13.1844 12.0677 13.0112 12.1772 12.842C12.2917 12.6653 12.4032 12.493 12.5111 12.5274C13.0544 12.7015 13.5088 13.0789 13.7787 13.5805L13.7783 13.5809Z" fill="#32343D"/>
<path d="M13.7708 13.5844C13.2781 13.9719 12.6232 14.2318 11.7702 14.2318C10.9689 14.2318 10.3423 14.0024 9.86133 13.6533C9.99528 13.3821 10.1838 13.1412 10.4152 12.9461C10.6465 12.7508 10.9158 12.6053 11.206 12.5186C11.405 12.4593 11.6158 13.1883 11.834 13.1883C12.0676 13.1883 12.2926 12.4639 12.5038 12.5313C13.0469 12.7055 13.5011 13.0829 13.7714 13.5844H13.7708Z" fill="#FF323D"/>
<path d="M6.46878 9.21271C6.37888 9.27313 6.2779 9.31522 6.17171 9.33655C6.06548 9.35789 5.95608 9.35812 5.84978 9.33725C5.74346 9.31626 5.64228 9.27463 5.55212 9.21469C5.46197 9.15462 5.38459 9.07751 5.32441 8.98753C5.26419 8.89767 5.22236 8.79667 5.20126 8.69069C5.18019 8.58459 5.18031 8.47537 5.20161 8.36927C5.2229 8.26329 5.26497 8.16252 5.32534 8.07266C5.38575 7.98289 5.46336 7.90592 5.55363 7.84609C5.73522 7.72584 5.95724 7.68224 6.1709 7.72503C6.38455 7.76782 6.57265 7.89339 6.69371 8.07417C6.81477 8.25505 6.85915 8.47641 6.81697 8.68976C6.7748 8.90324 6.64956 9.09131 6.46878 9.21271ZM18.2494 9.21271C18.1595 9.27313 18.0586 9.31522 17.9524 9.33655C17.8462 9.35789 17.7367 9.35812 17.6304 9.33725C17.5241 9.31626 17.4229 9.27463 17.3328 9.21469C17.2426 9.15462 17.1653 9.07751 17.1051 8.98753C17.0448 8.89767 17.0029 8.79667 16.9819 8.69069C16.9609 8.58459 16.961 8.47537 16.9823 8.36927C17.0035 8.26329 17.0456 8.16252 17.106 8.07266C17.1664 7.98289 17.244 7.90592 17.3343 7.84609C17.5159 7.72584 17.7379 7.68224 17.9516 7.72503C18.1652 7.76782 18.3532 7.89339 18.4744 8.07417C18.5954 8.25505 18.6398 8.47641 18.5976 8.68976C18.5555 8.90324 18.4302 9.09131 18.2494 9.21271Z" fill="#FFAD03"/>
</g>
<defs>
<clipPath id="clip0_349_631">
<rect width="100.5" height="22.3333" fill="white"/>
</clipPath>
</defs>
</svg>
